<svg width="373" height="100" viewBox="0 0 373 100" fill="none" xmlns="http://www.w3.org/2000/svg">
<rect width="373" height="100" rx="50" fill="#0091F5"/>
<path d="M134.219 64V36.5H139.719V59.3125H145.375V64H134.219ZM146.812 39.125V34.4688H152.406V39.125H146.812ZM146.812 64V40.5625H152.406V64H146.812ZM154.625 64V40.5625H160.219V43.5469C160.427 42.651 160.812 41.8906 161.375 41.2656C161.948 40.6302 162.74 40.3125 163.75 40.3125C165.375 40.3125 166.552 40.8125 167.281 41.8125C168.021 42.8125 168.391 44.1823 168.391 45.9219V64H162.875V46.5C162.875 46.0417 162.781 45.6198 162.594 45.2344C162.406 44.8385 162.083 44.6406 161.625 44.6406C161.198 44.6406 160.88 44.7917 160.672 45.0938C160.474 45.3854 160.349 45.7552 160.297 46.2031C160.245 46.6406 160.219 47.0781 160.219 47.5156V64H154.625ZM170.594 64V36.5H176.125V48.6406L178.812 40.5625H184.609L181.094 50.75L185.562 64H179.609L176.125 52.9531V64H170.594ZM192.875 64.25C191.208 64.25 189.88 63.9375 188.891 63.3125C187.901 62.6875 187.193 61.7865 186.766 60.6094C186.339 59.4323 186.125 58.0156 186.125 56.3594V46.9375C186.125 44.7604 186.75 43.1146 188 42C189.25 40.875 190.969 40.3125 193.156 40.3125C197.656 40.3125 199.906 42.5208 199.906 46.9375V48.6406C199.906 50.7031 199.885 52.0885 199.844 52.7969H191.719V57.3281C191.719 57.7448 191.745 58.1562 191.797 58.5625C191.849 58.9583 191.964 59.2865 192.141 59.5469C192.328 59.8073 192.625 59.9375 193.031 59.9375C193.615 59.9375 193.979 59.6875 194.125 59.1875C194.271 58.6771 194.344 58.0156 194.344 57.2031V54.9531H199.906V56.2812C199.906 58.0312 199.688 59.5 199.25 60.6875C198.823 61.8646 198.094 62.7552 197.062 63.3594C196.042 63.9531 194.646 64.25 192.875 64.25ZM191.688 50.0156H194.344V46.8594C194.344 46.0156 194.24 45.4115 194.031 45.0469C193.823 44.6719 193.51 44.4844 193.094 44.4844C192.646 44.4844 192.297 44.6615 192.047 45.0156C191.807 45.3698 191.688 45.9844 191.688 46.8594V50.0156ZM206.547 64.25C205.464 64.25 204.604 64.0521 203.969 63.6562C203.333 63.2604 202.859 62.7135 202.547 62.0156C202.234 61.3177 202.026 60.5 201.922 59.5625C201.828 58.625 201.781 57.6198 201.781 56.5469V46.3594C201.781 44.5573 202.099 43.099 202.734 41.9844C203.38 40.8698 204.469 40.3125 206 40.3125C207.135 40.3125 208.005 40.5573 208.609 41.0469C209.224 41.526 209.698 42.1979 210.031 43.0625V36.5H215.719V64H210.031V61.5156C209.719 62.3594 209.302 63.026 208.781 63.5156C208.271 64.0052 207.526 64.25 206.547 64.25ZM208.688 59.875C209.219 59.875 209.573 59.6615 209.75 59.2344C209.938 58.8073 210.031 58.0417 210.031 56.9375V47.0781C210.031 46.526 209.948 45.9844 209.781 45.4531C209.625 44.9115 209.271 44.6406 208.719 44.6406C208.115 44.6406 207.734 44.8958 207.578 45.4062C207.422 45.9167 207.344 46.474 207.344 47.0781V56.9375C207.344 58.8958 207.792 59.875 208.688 59.875ZM217.844 39.125V34.4688H223.438V39.125H217.844ZM217.844 64V40.5625H223.438V64H217.844ZM225.656 64V40.5625H231.25V43.5469C231.458 42.651 231.844 41.8906 232.406 41.2656C232.979 40.6302 233.771 40.3125 234.781 40.3125C236.406 40.3125 237.583 40.8125 238.312 41.8125C239.052 42.8125 239.422 44.1823 239.422 45.9219V64H233.906V46.5C233.906 46.0417 233.812 45.6198 233.625 45.2344C233.438 44.8385 233.115 44.6406 232.656 44.6406C232.229 44.6406 231.911 44.7917 231.703 45.0938C231.505 45.3854 231.38 45.7552 231.328 46.2031C231.276 46.6406 231.25 47.0781 231.25 47.5156V64H225.656Z" fill="white"/>
</svg>
