<svg width="373" height="100" viewBox="0 0 373 100" fill="none" xmlns="http://www.w3.org/2000/svg">
<rect width="373" height="100" rx="50" fill="#EB00FF"/>
<path d="M153.219 64V36.5H164.219V41.8125H158.812V47.1719H164V52.3438H158.812V58.6406H164.578V64H153.219ZM166.312 64V40.5625H171.781V43.2812C172.031 42.3229 172.458 41.5885 173.062 41.0781C173.667 40.5677 174.552 40.3125 175.719 40.3125C176.656 40.3125 177.453 40.5312 178.109 40.9688C178.776 41.3958 179.245 41.9635 179.516 42.6719C179.943 41.901 180.443 41.3177 181.016 40.9219C181.599 40.5156 182.427 40.3125 183.5 40.3125C184.802 40.3125 185.802 40.5938 186.5 41.1562C187.208 41.7083 187.698 42.4792 187.969 43.4688C188.25 44.4479 188.391 45.5833 188.391 46.875V64H182.812V46.7812C182.812 45.2708 182.427 44.5156 181.656 44.5156C181.25 44.5156 180.938 44.6562 180.719 44.9375C180.5 45.2083 180.349 45.5469 180.266 45.9531C180.182 46.3594 180.141 46.7656 180.141 47.1719V64H174.562V46.7812C174.562 46.2917 174.5 45.8021 174.375 45.3125C174.26 44.8229 173.958 44.5781 173.469 44.5781C173.052 44.5781 172.729 44.7292 172.5 45.0312C172.271 45.3333 172.115 45.7083 172.031 46.1562C171.948 46.5938 171.906 47.026 171.906 47.4531V64H166.312ZM194.859 64.25C193.557 64.25 192.562 63.9479 191.875 63.3438C191.198 62.7396 190.734 61.9115 190.484 60.8594C190.234 59.8073 190.109 58.6146 190.109 57.2812C190.109 55.8542 190.25 54.6875 190.531 53.7812C190.812 52.8646 191.292 52.1146 191.969 51.5312C192.656 50.9479 193.599 50.4531 194.797 50.0469L198.266 48.8594V46.4531C198.266 45.1927 197.854 44.5625 197.031 44.5625C196.281 44.5625 195.906 45.0729 195.906 46.0938V47.5H190.469C190.458 47.4167 190.453 47.3125 190.453 47.1875C190.453 47.0521 190.453 46.901 190.453 46.7344C190.453 44.401 191 42.75 192.094 41.7812C193.198 40.8021 194.943 40.3125 197.328 40.3125C198.578 40.3125 199.698 40.5365 200.688 40.9844C201.677 41.4219 202.458 42.0729 203.031 42.9375C203.615 43.8021 203.906 44.8698 203.906 46.1406V64H198.344V61.2188C198.073 62.1979 197.625 62.9479 197 63.4688C196.375 63.9896 195.661 64.25 194.859 64.25ZM197.062 59.9062C197.521 59.9062 197.833 59.7135 198 59.3281C198.167 58.9427 198.25 58.526 198.25 58.0781V51.5469C197.479 51.8594 196.88 52.2552 196.453 52.7344C196.026 53.2031 195.812 53.8958 195.812 54.8125V57.8281C195.812 59.2135 196.229 59.9062 197.062 59.9062ZM206.031 39.125V34.4688H211.625V39.125H206.031ZM206.031 64V40.5625H211.625V64H206.031ZM213.844 64V36.5H219.531V64H213.844Z" fill="white"/>
</svg>
