<svg width="373" height="100" viewBox="0 0 373 100" fill="none" xmlns="http://www.w3.org/2000/svg">
<rect width="373" height="100" rx="50" fill="#0091F5"/>
<path d="M101.219 64V36.5H109.594L111.906 53.2656L114.203 36.5H122.656V64H117.625V44.1875L114.469 64H109.531L106.188 44.1875V64H101.219ZM131.562 64.25C129.896 64.25 128.568 63.9375 127.578 63.3125C126.589 62.6875 125.88 61.7865 125.453 60.6094C125.026 59.4323 124.812 58.0156 124.812 56.3594V46.9375C124.812 44.7604 125.438 43.1146 126.688 42C127.938 40.875 129.656 40.3125 131.844 40.3125C136.344 40.3125 138.594 42.5208 138.594 46.9375V48.6406C138.594 50.7031 138.573 52.0885 138.531 52.7969H130.406V57.3281C130.406 57.7448 130.432 58.1562 130.484 58.5625C130.536 58.9583 130.651 59.2865 130.828 59.5469C131.016 59.8073 131.312 59.9375 131.719 59.9375C132.302 59.9375 132.667 59.6875 132.812 59.1875C132.958 58.6771 133.031 58.0156 133.031 57.2031V54.9531H138.594V56.2812C138.594 58.0312 138.375 59.5 137.938 60.6875C137.51 61.8646 136.781 62.7552 135.75 63.3594C134.729 63.9531 133.333 64.25 131.562 64.25ZM130.375 50.0156H133.031V46.8594C133.031 46.0156 132.927 45.4115 132.719 45.0469C132.51 44.6719 132.198 44.4844 131.781 44.4844C131.333 44.4844 130.984 44.6615 130.734 45.0156C130.495 45.3698 130.375 45.9844 130.375 46.8594V50.0156ZM145.141 64.25C143.891 64.25 142.932 63.9896 142.266 63.4688C141.609 62.9479 141.161 62.224 140.922 61.2969C140.682 60.3594 140.562 59.2656 140.562 58.0156V40.5625H146.188V57.3594C146.188 58.2969 146.26 58.9531 146.406 59.3281C146.552 59.6927 146.896 59.875 147.438 59.875C148.021 59.875 148.385 59.6146 148.531 59.0938C148.688 58.5729 148.766 57.901 148.766 57.0781V40.5625H154.344V64H148.75V61.5C148.396 62.3958 147.969 63.0781 147.469 63.5469C146.979 64.0156 146.203 64.25 145.141 64.25ZM164.094 67.9062V40.5625H169.781V43.0625C170.125 42.1979 170.599 41.526 171.203 41.0469C171.818 40.5573 172.693 40.3125 173.828 40.3125C175.359 40.3125 176.438 40.8698 177.062 41.9844C177.698 43.099 178.016 44.5573 178.016 46.3594V57.8906C178.016 59.0885 177.844 60.1719 177.5 61.1406C177.167 62.099 176.635 62.8594 175.906 63.4219C175.188 63.974 174.245 64.25 173.078 64.25C171.557 64.25 170.458 63.3333 169.781 61.5V67.9062H164.094ZM171.109 59.8906C171.693 59.8906 172.042 59.599 172.156 59.0156C172.281 58.4323 172.344 57.7135 172.344 56.8594V47.7031C172.344 46.8385 172.281 46.1198 172.156 45.5469C172.042 44.9635 171.693 44.6719 171.109 44.6719C170.505 44.6719 170.13 44.9688 169.984 45.5625C169.849 46.1458 169.781 46.8594 169.781 47.7031V56.8594C169.781 57.7031 169.849 58.4219 169.984 59.0156C170.13 59.599 170.505 59.8906 171.109 59.8906ZM186.969 64.25C182.302 64.25 179.969 61.8281 179.969 56.9844V47.5781C179.969 45.3698 180.589 43.6094 181.828 42.2969C183.068 40.974 184.781 40.3125 186.969 40.3125C189.167 40.3125 190.885 40.974 192.125 42.2969C193.365 43.6094 193.984 45.3698 193.984 47.5781V56.9844C193.984 61.8281 191.646 64.25 186.969 64.25ZM186.969 59.9375C187.438 59.9375 187.771 59.7708 187.969 59.4375C188.177 59.0938 188.281 58.6615 188.281 58.1406V46.6875C188.281 45.3229 187.844 44.6406 186.969 44.6406C186.094 44.6406 185.656 45.3229 185.656 46.6875V58.1406C185.656 58.6615 185.755 59.0938 185.953 59.4375C186.161 59.7708 186.5 59.9375 186.969 59.9375ZM196.062 64V40.5625H201.75V43.1719C202.021 42.2656 202.5 41.5573 203.188 41.0469C203.875 40.5365 204.74 40.2812 205.781 40.2812V44.9531C205.323 44.9531 204.776 45.0052 204.141 45.1094C203.505 45.2031 202.948 45.3385 202.469 45.5156C201.99 45.6823 201.75 45.8698 201.75 46.0781V64H196.062ZM211.969 64.25C210.458 64.25 209.438 63.9323 208.906 63.2969C208.385 62.651 208.125 61.6667 208.125 60.3438V45.7344H206.547V41.4688H208.125V36.5H213.562V41.4688H215.141V45.7344H213.562V59.0312C213.562 59.4167 213.625 59.6875 213.75 59.8438C213.875 60 214.115 60.0781 214.469 60.0781C214.719 60.0781 214.943 60.0573 215.141 60.0156V63.8281C215.016 63.8698 214.625 63.9479 213.969 64.0625C213.312 64.1875 212.646 64.25 211.969 64.25ZM217.453 64V45.8594H216.438V41.5938H217.453V40C217.453 37.4792 218.714 36.2188 221.234 36.2188C222.422 36.2188 223.38 36.3698 224.109 36.6719V40.125C223.849 40.0729 223.677 40.0469 223.594 40.0469C223.271 40.0469 223.073 40.1667 223 40.4062C222.927 40.6354 222.891 40.9323 222.891 41.2969V41.5938H224.109V45.9219H223V64H217.453ZM232.719 64.25C228.052 64.25 225.719 61.8281 225.719 56.9844V47.5781C225.719 45.3698 226.339 43.6094 227.578 42.2969C228.818 40.974 230.531 40.3125 232.719 40.3125C234.917 40.3125 236.635 40.974 237.875 42.2969C239.115 43.6094 239.734 45.3698 239.734 47.5781V56.9844C239.734 61.8281 237.396 64.25 232.719 64.25ZM232.719 59.9375C233.188 59.9375 233.521 59.7708 233.719 59.4375C233.927 59.0938 234.031 58.6615 234.031 58.1406V46.6875C234.031 45.3229 233.594 44.6406 232.719 44.6406C231.844 44.6406 231.406 45.3229 231.406 46.6875V58.1406C231.406 58.6615 231.505 59.0938 231.703 59.4375C231.911 59.7708 232.25 59.9375 232.719 59.9375ZM229.016 39.4844V36L236.438 32.5938V38.0156L229.016 39.4844ZM241.812 64V36.5H247.5V64H241.812ZM249.719 39.125V34.4688H255.312V39.125H249.719ZM249.719 64V40.5625H255.312V64H249.719ZM264.344 64.25C259.677 64.25 257.344 61.8281 257.344 56.9844V47.5781C257.344 45.3698 257.964 43.6094 259.203 42.2969C260.443 40.974 262.156 40.3125 264.344 40.3125C266.542 40.3125 268.26 40.974 269.5 42.2969C270.74 43.6094 271.359 45.3698 271.359 47.5781V56.9844C271.359 61.8281 269.021 64.25 264.344 64.25ZM264.344 59.9375C264.812 59.9375 265.146 59.7708 265.344 59.4375C265.552 59.0938 265.656 58.6615 265.656 58.1406V46.6875C265.656 45.3229 265.219 44.6406 264.344 44.6406C263.469 44.6406 263.031 45.3229 263.031 46.6875V58.1406C263.031 58.6615 263.13 59.0938 263.328 59.4375C263.536 59.7708 263.875 59.9375 264.344 59.9375Z" fill="white"/>
</svg>
