<svg width="373" height="100" viewBox="0 0 373 100" fill="none" xmlns="http://www.w3.org/2000/svg">
<rect width="373" height="100" rx="50" fill="url(#paint0_linear_66_2)"/>
<path d="M87.75 64L84.3594 36.4844H89.5938L91.6094 55.2031L93.4062 36.4844H98.6406L95.25 64H87.75ZM100.125 39.125V34.4688H105.719V39.125H100.125ZM100.125 64V40.5625H105.719V64H100.125ZM114.359 64.25C109.734 64.25 107.422 61.9062 107.422 57.2188V55.3594H113.047V58.1094C113.047 58.6406 113.151 59.0573 113.359 59.3594C113.568 59.6615 113.901 59.8125 114.359 59.8125C115.172 59.8125 115.578 59.2031 115.578 57.9844C115.578 56.9635 115.365 56.2031 114.938 55.7031C114.51 55.1927 113.99 54.7031 113.375 54.2344L110.391 51.9375C109.453 51.2083 108.74 50.4375 108.25 49.625C107.76 48.8125 107.516 47.6823 107.516 46.2344C107.516 44.8906 107.833 43.7812 108.469 42.9062C109.115 42.0312 109.964 41.3802 111.016 40.9531C112.078 40.526 113.224 40.3125 114.453 40.3125C118.995 40.3125 121.266 42.5781 121.266 47.1094V47.5469H115.484V46.6562C115.484 46.1875 115.401 45.7344 115.234 45.2969C115.078 44.8594 114.766 44.6406 114.297 44.6406C113.505 44.6406 113.109 45.0573 113.109 45.8906C113.109 46.7344 113.443 47.3958 114.109 47.875L117.578 50.4062C118.661 51.1875 119.568 52.1146 120.297 53.1875C121.036 54.2604 121.406 55.6875 121.406 57.4688C121.406 59.6771 120.776 61.3594 119.516 62.5156C118.266 63.6719 116.547 64.25 114.359 64.25ZM127.641 64.25C126.391 64.25 125.432 63.9896 124.766 63.4688C124.109 62.9479 123.661 62.224 123.422 61.2969C123.182 60.3594 123.062 59.2656 123.062 58.0156V40.5625H128.688V57.3594C128.688 58.2969 128.76 58.9531 128.906 59.3281C129.052 59.6927 129.396 59.875 129.938 59.875C130.521 59.875 130.885 59.6146 131.031 59.0938C131.188 58.5729 131.266 57.901 131.266 57.0781V40.5625H136.844V64H131.25V61.5C130.896 62.3958 130.469 63.0781 129.969 63.5469C129.479 64.0156 128.703 64.25 127.641 64.25ZM143.359 64.25C142.057 64.25 141.062 63.9479 140.375 63.3438C139.698 62.7396 139.234 61.9115 138.984 60.8594C138.734 59.8073 138.609 58.6146 138.609 57.2812C138.609 55.8542 138.75 54.6875 139.031 53.7812C139.312 52.8646 139.792 52.1146 140.469 51.5312C141.156 50.9479 142.099 50.4531 143.297 50.0469L146.766 48.8594V46.4531C146.766 45.1927 146.354 44.5625 145.531 44.5625C144.781 44.5625 144.406 45.0729 144.406 46.0938V47.5H138.969C138.958 47.4167 138.953 47.3125 138.953 47.1875C138.953 47.0521 138.953 46.901 138.953 46.7344C138.953 44.401 139.5 42.75 140.594 41.7812C141.698 40.8021 143.443 40.3125 145.828 40.3125C147.078 40.3125 148.198 40.5365 149.188 40.9844C150.177 41.4219 150.958 42.0729 151.531 42.9375C152.115 43.8021 152.406 44.8698 152.406 46.1406V64H146.844V61.2188C146.573 62.1979 146.125 62.9479 145.5 63.4688C144.875 63.9896 144.161 64.25 143.359 64.25ZM145.562 59.9062C146.021 59.9062 146.333 59.7135 146.5 59.3281C146.667 58.9427 146.75 58.526 146.75 58.0781V51.5469C145.979 51.8594 145.38 52.2552 144.953 52.7344C144.526 53.2031 144.312 53.8958 144.312 54.8125V57.8281C144.312 59.2135 144.729 59.9062 145.562 59.9062ZM154.562 64V36.5H160.25V64H154.562ZM162.469 39.125V34.4688H168.062V39.125H162.469ZM162.469 64V40.5625H168.062V64H162.469ZM169.594 64V60.5781L175.438 45H169.875V40.5625H181.234V44.375L175.719 59.8125H181.281V64H169.594ZM186.891 64.25C185.589 64.25 184.594 63.9479 183.906 63.3438C183.229 62.7396 182.766 61.9115 182.516 60.8594C182.266 59.8073 182.141 58.6146 182.141 57.2812C182.141 55.8542 182.281 54.6875 182.562 53.7812C182.844 52.8646 183.323 52.1146 184 51.5312C184.688 50.9479 185.63 50.4531 186.828 50.0469L190.297 48.8594V46.4531C190.297 45.1927 189.885 44.5625 189.062 44.5625C188.312 44.5625 187.938 45.0729 187.938 46.0938V47.5H182.5C182.49 47.4167 182.484 47.3125 182.484 47.1875C182.484 47.0521 182.484 46.901 182.484 46.7344C182.484 44.401 183.031 42.75 184.125 41.7812C185.229 40.8021 186.974 40.3125 189.359 40.3125C190.609 40.3125 191.729 40.5365 192.719 40.9844C193.708 41.4219 194.49 42.0729 195.062 42.9375C195.646 43.8021 195.938 44.8698 195.938 46.1406V64H190.375V61.2188C190.104 62.1979 189.656 62.9479 189.031 63.4688C188.406 63.9896 187.693 64.25 186.891 64.25ZM189.094 59.9062C189.552 59.9062 189.865 59.7135 190.031 59.3281C190.198 58.9427 190.281 58.526 190.281 58.0781V51.5469C189.51 51.8594 188.911 52.2552 188.484 52.7344C188.057 53.2031 187.844 53.8958 187.844 54.8125V57.8281C187.844 59.2135 188.26 59.9062 189.094 59.9062ZM198.094 64V40.5625H203.781V43.1719C204.052 42.2656 204.531 41.5573 205.219 41.0469C205.906 40.5365 206.771 40.2812 207.812 40.2812V44.9531C207.354 44.9531 206.807 45.0052 206.172 45.1094C205.536 45.2031 204.979 45.3385 204.5 45.5156C204.021 45.6823 203.781 45.8698 203.781 46.0781V64H198.094ZM221.5 64.25C219.99 64.25 218.969 63.9323 218.438 63.2969C217.917 62.651 217.656 61.6667 217.656 60.3438V45.7344H216.078V41.4688H217.656V36.5H223.094V41.4688H224.672V45.7344H223.094V59.0312C223.094 59.4167 223.156 59.6875 223.281 59.8438C223.406 60 223.646 60.0781 224 60.0781C224.25 60.0781 224.474 60.0573 224.672 60.0156V63.8281C224.547 63.8698 224.156 63.9479 223.5 64.0625C222.844 64.1875 222.177 64.25 221.5 64.25ZM233.281 64.25C228.615 64.25 226.281 61.8281 226.281 56.9844V47.5781C226.281 45.3698 226.901 43.6094 228.141 42.2969C229.38 40.974 231.094 40.3125 233.281 40.3125C235.479 40.3125 237.198 40.974 238.438 42.2969C239.677 43.6094 240.297 45.3698 240.297 47.5781V56.9844C240.297 61.8281 237.958 64.25 233.281 64.25ZM233.281 59.9375C233.75 59.9375 234.083 59.7708 234.281 59.4375C234.49 59.0938 234.594 58.6615 234.594 58.1406V46.6875C234.594 45.3229 234.156 44.6406 233.281 44.6406C232.406 44.6406 231.969 45.3229 231.969 46.6875V58.1406C231.969 58.6615 232.068 59.0938 232.266 59.4375C232.474 59.7708 232.812 59.9375 233.281 59.9375ZM246.984 64.25C245.901 64.25 245.042 64.0521 244.406 63.6562C243.771 63.2604 243.297 62.7135 242.984 62.0156C242.672 61.3177 242.464 60.5 242.359 59.5625C242.266 58.625 242.219 57.6198 242.219 56.5469V46.3594C242.219 44.5573 242.536 43.099 243.172 41.9844C243.818 40.8698 244.906 40.3125 246.438 40.3125C247.573 40.3125 248.443 40.5573 249.047 41.0469C249.661 41.526 250.135 42.1979 250.469 43.0625V36.5H256.156V64H250.469V61.5156C250.156 62.3594 249.74 63.026 249.219 63.5156C248.708 64.0052 247.964 64.25 246.984 64.25ZM249.125 59.875C249.656 59.875 250.01 59.6615 250.188 59.2344C250.375 58.8073 250.469 58.0417 250.469 56.9375V47.0781C250.469 46.526 250.385 45.9844 250.219 45.4531C250.062 44.9115 249.708 44.6406 249.156 44.6406C248.552 44.6406 248.172 44.8958 248.016 45.4062C247.859 45.9167 247.781 46.474 247.781 47.0781V56.9375C247.781 58.8958 248.229 59.875 249.125 59.875ZM265.125 64.25C260.458 64.25 258.125 61.8281 258.125 56.9844V47.5781C258.125 45.3698 258.745 43.6094 259.984 42.2969C261.224 40.974 262.938 40.3125 265.125 40.3125C267.323 40.3125 269.042 40.974 270.281 42.2969C271.521 43.6094 272.141 45.3698 272.141 47.5781V56.9844C272.141 61.8281 269.802 64.25 265.125 64.25ZM265.125 59.9375C265.594 59.9375 265.927 59.7708 266.125 59.4375C266.333 59.0938 266.438 58.6615 266.438 58.1406V46.6875C266.438 45.3229 266 44.6406 265.125 44.6406C264.25 44.6406 263.812 45.3229 263.812 46.6875V58.1406C263.812 58.6615 263.911 59.0938 264.109 59.4375C264.318 59.7708 264.656 59.9375 265.125 59.9375ZM280.641 64.25C276.016 64.25 273.703 61.9062 273.703 57.2188V55.3594H279.328V58.1094C279.328 58.6406 279.432 59.0573 279.641 59.3594C279.849 59.6615 280.182 59.8125 280.641 59.8125C281.453 59.8125 281.859 59.2031 281.859 57.9844C281.859 56.9635 281.646 56.2031 281.219 55.7031C280.792 55.1927 280.271 54.7031 279.656 54.2344L276.672 51.9375C275.734 51.2083 275.021 50.4375 274.531 49.625C274.042 48.8125 273.797 47.6823 273.797 46.2344C273.797 44.8906 274.115 43.7812 274.75 42.9062C275.396 42.0312 276.245 41.3802 277.297 40.9531C278.359 40.526 279.505 40.3125 280.734 40.3125C285.276 40.3125 287.547 42.5781 287.547 47.1094V47.5469H281.766V46.6562C281.766 46.1875 281.682 45.7344 281.516 45.2969C281.359 44.8594 281.047 44.6406 280.578 44.6406C279.786 44.6406 279.391 45.0573 279.391 45.8906C279.391 46.7344 279.724 47.3958 280.391 47.875L283.859 50.4062C284.943 51.1875 285.849 52.1146 286.578 53.1875C287.318 54.2604 287.688 55.6875 287.688 57.4688C287.688 59.6771 287.057 61.3594 285.797 62.5156C284.547 63.6719 282.828 64.25 280.641 64.25Z" fill="white"/>
<defs>
<linearGradient id="paint0_linear_66_2" x1="45" y1="63" x2="342.5" y2="65.5" gradientUnits="userSpaceOnUse">
<stop offset="0.405588" stop-color="#EB00FF"/>
<stop offset="1" stop-color="#0091F5"/>
</linearGradient>
</defs>
</svg>
