<svg width="124" height="89" viewBox="0 0 124 89" fill="none" xmlns="http://www.w3.org/2000/svg">
<path d="M5.6875 35L1.44922 0.605469H7.99219L10.5117 24.0039L12.7578 0.605469H19.3008L15.0625 35H5.6875ZM21 35V0.625H27.6406V35H21ZM30.375 35V0.625H37.4453L40.6094 17.0898V0.625H47.25V35H40.5312L37.0938 17.8125V35H30.375ZM49.9844 35V0.625H56.625V35H49.9844ZM67.3672 35.3125C64.8802 35.3125 62.875 34.5378 61.3516 32.9883C59.8411 31.4388 59.0859 29.2708 59.0859 26.4844V10.625C59.0859 7.29167 59.7435 4.73958 61.0586 2.96875C62.3867 1.19792 64.5417 0.3125 67.5234 0.3125C69.151 0.3125 70.5964 0.611979 71.8594 1.21094C73.1354 1.8099 74.138 2.70833 74.8672 3.90625C75.5964 5.09115 75.9609 6.58854 75.9609 8.39844V14.3359H69.125V9.25781C69.125 8.22917 68.9948 7.53906 68.7344 7.1875C68.474 6.82292 68.0703 6.64062 67.5234 6.64062C66.8854 6.64062 66.4557 6.875 66.2344 7.34375C66.013 7.79948 65.9023 8.41146 65.9023 9.17969V26.3867C65.9023 27.3372 66.0391 28.0078 66.3125 28.3984C66.599 28.7891 67.0026 28.9844 67.5234 28.9844C68.1094 28.9844 68.5195 28.7435 68.7539 28.2617C69.0013 27.7799 69.125 27.1549 69.125 26.3867V20.1953H76.0391V26.6992C76.0391 29.7201 75.2773 31.9141 73.7539 33.2812C72.2305 34.6354 70.1016 35.3125 67.3672 35.3125ZM78.0312 35V0.625H84.6719V35H78.0312ZM95.3555 35.3125C92.4909 35.3125 90.3815 34.5117 89.0273 32.9102C87.6732 31.2956 86.9961 28.9258 86.9961 25.8008V0.625H93.6758V25.5273C93.6758 26.1003 93.7083 26.6536 93.7734 27.1875C93.8385 27.7083 93.9883 28.138 94.2227 28.4766C94.457 28.8151 94.8346 28.9844 95.3555 28.9844C95.8893 28.9844 96.2734 28.8216 96.5078 28.4961C96.7422 28.1576 96.8854 27.7214 96.9375 27.1875C97.0026 26.6536 97.0352 26.1003 97.0352 25.5273V0.625H103.715V25.8008C103.715 28.9258 103.038 31.2956 101.684 32.9102C100.329 34.5117 98.2201 35.3125 95.3555 35.3125ZM114.516 35.3125C111.378 35.3125 109.112 34.5312 107.719 32.9688C106.339 31.4062 105.648 28.9193 105.648 25.5078V22.1484H112.445V26.4453C112.445 27.2396 112.562 27.8646 112.797 28.3203C113.044 28.763 113.467 28.9844 114.066 28.9844C114.691 28.9844 115.121 28.8021 115.355 28.4375C115.603 28.0729 115.727 27.474 115.727 26.6406C115.727 25.5859 115.622 24.707 115.414 24.0039C115.206 23.2878 114.841 22.6107 114.32 21.9727C113.812 21.3216 113.103 20.5664 112.191 19.707L109.105 16.7773C106.801 14.6029 105.648 12.1159 105.648 9.31641C105.648 6.38672 106.326 4.15365 107.68 2.61719C109.047 1.08073 111.02 0.3125 113.598 0.3125C116.749 0.3125 118.982 1.15234 120.297 2.83203C121.625 4.51172 122.289 7.0638 122.289 10.4883H115.297V8.125C115.297 7.65625 115.16 7.29167 114.887 7.03125C114.626 6.77083 114.268 6.64062 113.812 6.64062C113.266 6.64062 112.862 6.79688 112.602 7.10938C112.354 7.40885 112.23 7.79948 112.23 8.28125C112.23 8.76302 112.361 9.28385 112.621 9.84375C112.882 10.4036 113.396 11.0482 114.164 11.7773L118.129 15.5859C118.923 16.3411 119.652 17.1419 120.316 17.9883C120.98 18.8216 121.514 19.7982 121.918 20.918C122.322 22.0247 122.523 23.3789 122.523 24.9805C122.523 28.2096 121.924 30.7422 120.727 32.5781C119.542 34.401 117.471 35.3125 114.516 35.3125Z" fill="url(#paint0_linear_7_31)"/>
<path d="M10.1291 88.3125C8.57966 88.3125 7.1669 88.013 5.89085 87.4141C4.61481 86.8151 3.59919 85.9297 2.84398 84.7578C2.10179 83.5729 1.7307 82.1211 1.7307 80.4023V71.7891H8.52757V79.9922C8.52757 80.5911 8.64476 81.0729 8.87914 81.4375C9.12653 81.8021 9.51716 81.9844 10.051 81.9844C11.0797 81.9844 11.594 81.3529 11.594 80.0898V53.625H18.5276V79.4062C18.5276 81.2292 18.1695 82.8112 17.4534 84.1523C16.7372 85.4805 15.7476 86.5091 14.4846 87.2383C13.2216 87.9544 11.7698 88.3125 10.1291 88.3125ZM29.3869 88.3125C26.6396 88.3125 24.5367 87.4857 23.0784 85.832C21.633 84.1654 20.9104 81.763 20.9104 78.625V62.2969C20.9104 59.3542 21.6265 57.1211 23.0588 55.5977C24.5041 54.0742 26.6135 53.3125 29.3869 53.3125C32.1604 53.3125 34.2632 54.0742 35.6955 55.5977C37.1409 57.1211 37.8635 59.3542 37.8635 62.2969V78.625C37.8635 81.763 37.1343 84.1654 35.676 85.832C34.2307 87.4857 32.1343 88.3125 29.3869 88.3125ZM29.4455 81.9844C30.4872 81.9844 31.008 80.9753 31.008 78.957V62.1797C31.008 60.487 30.5002 59.6406 29.4846 59.6406C28.3388 59.6406 27.7659 60.5065 27.7659 62.2383V78.9961C27.7659 80.0638 27.8961 80.832 28.1565 81.3008C28.4169 81.7565 28.8466 81.9844 29.4455 81.9844ZM48.801 88.3125C45.663 88.3125 43.3974 87.5312 42.0041 85.9688C40.6239 84.4062 39.9338 81.9193 39.9338 78.5078V75.1484H46.7307V79.4453C46.7307 80.2396 46.8479 80.8646 47.0823 81.3203C47.3297 81.763 47.7528 81.9844 48.3518 81.9844C48.9768 81.9844 49.4065 81.8021 49.6409 81.4375C49.8882 81.0729 50.0119 80.474 50.0119 79.6406C50.0119 78.5859 49.9078 77.707 49.6994 77.0039C49.4911 76.2878 49.1265 75.6107 48.6057 74.9727C48.0979 74.3216 47.3882 73.5664 46.4768 72.707L43.3909 69.7773C41.0862 67.6029 39.9338 65.1159 39.9338 62.3164C39.9338 59.3867 40.6109 57.1536 41.9651 55.6172C43.3323 54.0807 45.3049 53.3125 47.883 53.3125C51.0341 53.3125 53.2672 54.1523 54.5823 55.832C55.9104 57.5117 56.5744 60.0638 56.5744 63.4883H49.5823V61.125C49.5823 60.6562 49.4455 60.2917 49.1721 60.0312C48.9117 59.7708 48.5536 59.6406 48.0979 59.6406C47.551 59.6406 47.1474 59.7969 46.8869 60.1094C46.6396 60.4089 46.5159 60.7995 46.5159 61.2812C46.5159 61.763 46.6461 62.2839 46.9065 62.8438C47.1669 63.4036 47.6812 64.0482 48.4494 64.7773L52.4143 68.5859C53.2086 69.3411 53.9377 70.1419 54.6018 70.9883C55.2659 71.8216 55.7997 72.7982 56.2034 73.918C56.607 75.0247 56.8088 76.3789 56.8088 77.9805C56.8088 81.2096 56.2099 83.7422 55.0119 85.5781C53.8271 87.401 51.7567 88.3125 48.801 88.3125ZM59.1135 88V53.625H72.8635V60.2656H66.1057V66.9648H72.5901V73.4297H66.1057V81.3008H73.3127V88H59.1135ZM61.6135 52.5898V48.2344L70.8909 43.9766V50.7539L61.6135 52.5898Z" fill="#F5F5F5"/>
<defs>
<linearGradient id="paint0_linear_7_31" x1="1" y1="18" x2="124" y2="18" gradientUnits="userSpaceOnUse">
<stop offset="0.675225" stop-color="#EB00FF"/>
<stop offset="0.880616" stop-color="#0091F5"/>
</linearGradient>
</defs>
</svg>
