<svg width="373" height="100" viewBox="0 0 373 100" fill="none" xmlns="http://www.w3.org/2000/svg">
<rect width="373" height="100" rx="50" fill="url(#paint0_linear_14_4)"/>
<path d="M83.5781 64V41.7812H80.3125V36.5H92.3438V41.7812H89.0781V64H83.5781ZM93.7812 64V40.5625H99.4688V43.1719C99.7396 42.2656 100.219 41.5573 100.906 41.0469C101.594 40.5365 102.458 40.2812 103.5 40.2812V44.9531C103.042 44.9531 102.495 45.0052 101.859 45.1094C101.224 45.2031 100.667 45.3385 100.188 45.5156C99.7083 45.6823 99.4688 45.8698 99.4688 46.0781V64H93.7812ZM109.141 64.25C107.839 64.25 106.844 63.9479 106.156 63.3438C105.479 62.7396 105.016 61.9115 104.766 60.8594C104.516 59.8073 104.391 58.6146 104.391 57.2812C104.391 55.8542 104.531 54.6875 104.812 53.7812C105.094 52.8646 105.573 52.1146 106.25 51.5312C106.938 50.9479 107.88 50.4531 109.078 50.0469L112.547 48.8594V46.4531C112.547 45.1927 112.135 44.5625 111.312 44.5625C110.562 44.5625 110.188 45.0729 110.188 46.0938V47.5H104.75C104.74 47.4167 104.734 47.3125 104.734 47.1875C104.734 47.0521 104.734 46.901 104.734 46.7344C104.734 44.401 105.281 42.75 106.375 41.7812C107.479 40.8021 109.224 40.3125 111.609 40.3125C112.859 40.3125 113.979 40.5365 114.969 40.9844C115.958 41.4219 116.74 42.0729 117.312 42.9375C117.896 43.8021 118.188 44.8698 118.188 46.1406V64H112.625V61.2188C112.354 62.1979 111.906 62.9479 111.281 63.4688C110.656 63.9896 109.943 64.25 109.141 64.25ZM111.344 59.9062C111.802 59.9062 112.115 59.7135 112.281 59.3281C112.448 58.9427 112.531 58.526 112.531 58.0781V51.5469C111.76 51.8594 111.161 52.2552 110.734 52.7344C110.307 53.2031 110.094 53.8958 110.094 54.8125V57.8281C110.094 59.2135 110.51 59.9062 111.344 59.9062ZM129.703 64.25C128.786 64.25 128.042 64.026 127.469 63.5781C126.896 63.1198 126.438 62.4271 126.094 61.5V64H120.406V36.5H126.094V43.0625C126.438 42.1979 126.911 41.526 127.516 41.0469C128.13 40.5573 129.005 40.3125 130.141 40.3125C131.672 40.3125 132.75 40.8698 133.375 41.9844C134.01 43.099 134.328 44.5573 134.328 46.3594V57.8906C134.328 59.0885 134.161 60.1719 133.828 61.1406C133.505 62.099 133 62.8594 132.312 63.4219C131.635 63.974 130.766 64.25 129.703 64.25ZM127.391 59.8906C127.984 59.8906 128.344 59.599 128.469 59.0156C128.594 58.4323 128.656 57.7135 128.656 56.8594V47.7031C128.656 46.8385 128.594 46.1198 128.469 45.5469C128.344 44.9635 127.99 44.6719 127.406 44.6719C126.802 44.6719 126.432 44.9688 126.297 45.5625C126.161 46.1458 126.094 46.8594 126.094 47.7031V56.8594C126.094 57.7031 126.161 58.4219 126.297 59.0156C126.432 59.599 126.797 59.8906 127.391 59.8906ZM140.672 64.25C139.37 64.25 138.375 63.9479 137.688 63.3438C137.01 62.7396 136.547 61.9115 136.297 60.8594C136.047 59.8073 135.922 58.6146 135.922 57.2812C135.922 55.8542 136.062 54.6875 136.344 53.7812C136.625 52.8646 137.104 52.1146 137.781 51.5312C138.469 50.9479 139.411 50.4531 140.609 50.0469L144.078 48.8594V46.4531C144.078 45.1927 143.667 44.5625 142.844 44.5625C142.094 44.5625 141.719 45.0729 141.719 46.0938V47.5H136.281C136.271 47.4167 136.266 47.3125 136.266 47.1875C136.266 47.0521 136.266 46.901 136.266 46.7344C136.266 44.401 136.812 42.75 137.906 41.7812C139.01 40.8021 140.755 40.3125 143.141 40.3125C144.391 40.3125 145.51 40.5365 146.5 40.9844C147.49 41.4219 148.271 42.0729 148.844 42.9375C149.427 43.8021 149.719 44.8698 149.719 46.1406V64H144.156V61.2188C143.885 62.1979 143.438 62.9479 142.812 63.4688C142.188 63.9896 141.474 64.25 140.672 64.25ZM142.875 59.9062C143.333 59.9062 143.646 59.7135 143.812 59.3281C143.979 58.9427 144.062 58.526 144.062 58.0781V51.5469C143.292 51.8594 142.693 52.2552 142.266 52.7344C141.839 53.2031 141.625 53.8958 141.625 54.8125V57.8281C141.625 59.2135 142.042 59.9062 142.875 59.9062ZM151.875 64V36.5H157.562V64H151.875ZM159.812 64V36.5H165.562V42.8906C165.865 42.0156 166.328 41.3698 166.953 40.9531C167.578 40.526 168.307 40.3125 169.141 40.3125C170.766 40.3125 171.948 40.8229 172.688 41.8438C173.427 42.8646 173.797 44.2344 173.797 45.9531V64H168.141V46.3125C168.141 45.8021 168.031 45.3854 167.812 45.0625C167.604 44.7396 167.271 44.5781 166.812 44.5781C166.427 44.5781 166.12 44.7448 165.891 45.0781C165.672 45.4115 165.562 45.8073 165.562 46.2656V64H159.812ZM182.562 64.25C180.896 64.25 179.568 63.9375 178.578 63.3125C177.589 62.6875 176.88 61.7865 176.453 60.6094C176.026 59.4323 175.812 58.0156 175.812 56.3594V46.9375C175.812 44.7604 176.438 43.1146 177.688 42C178.938 40.875 180.656 40.3125 182.844 40.3125C187.344 40.3125 189.594 42.5208 189.594 46.9375V48.6406C189.594 50.7031 189.573 52.0885 189.531 52.7969H181.406V57.3281C181.406 57.7448 181.432 58.1562 181.484 58.5625C181.536 58.9583 181.651 59.2865 181.828 59.5469C182.016 59.8073 182.312 59.9375 182.719 59.9375C183.302 59.9375 183.667 59.6875 183.812 59.1875C183.958 58.6771 184.031 58.0156 184.031 57.2031V54.9531H189.594V56.2812C189.594 58.0312 189.375 59.5 188.938 60.6875C188.51 61.8646 187.781 62.7552 186.75 63.3594C185.729 63.9531 184.333 64.25 182.562 64.25ZM181.375 50.0156H184.031V46.8594C184.031 46.0156 183.927 45.4115 183.719 45.0469C183.51 44.6719 183.198 44.4844 182.781 44.4844C182.333 44.4844 181.984 44.6615 181.734 45.0156C181.495 45.3698 181.375 45.9844 181.375 46.8594V50.0156ZM206.172 64.25C203.547 64.25 201.682 63.5781 200.578 62.2344C199.484 60.8906 198.938 58.9167 198.938 56.3125V49.0938C198.938 47.1354 199.146 45.5052 199.562 44.2031C199.979 42.901 200.708 41.9271 201.75 41.2812C202.792 40.6354 204.24 40.3125 206.094 40.3125C207.385 40.3125 208.542 40.5417 209.562 41C210.594 41.4583 211.406 42.1302 212 43.0156C212.594 43.901 212.891 44.9844 212.891 46.2656V49.8438H207.188V46.5625C207.188 46.0208 207.109 45.5677 206.953 45.2031C206.797 44.8281 206.458 44.6406 205.938 44.6406C205.021 44.6406 204.562 45.2917 204.562 46.5938V57.9531C204.562 58.4323 204.667 58.875 204.875 59.2812C205.083 59.6771 205.427 59.875 205.906 59.875C206.396 59.875 206.734 59.6823 206.922 59.2969C207.12 58.901 207.219 58.4427 207.219 57.9219V53.9844H212.891V58.0781C212.891 59.3698 212.599 60.4792 212.016 61.4062C211.443 62.3229 210.651 63.026 209.641 63.5156C208.63 64.0052 207.474 64.25 206.172 64.25ZM221.656 64.25C216.99 64.25 214.656 61.8281 214.656 56.9844V47.5781C214.656 45.3698 215.276 43.6094 216.516 42.2969C217.755 40.974 219.469 40.3125 221.656 40.3125C223.854 40.3125 225.573 40.974 226.812 42.2969C228.052 43.6094 228.672 45.3698 228.672 47.5781V56.9844C228.672 61.8281 226.333 64.25 221.656 64.25ZM221.656 59.9375C222.125 59.9375 222.458 59.7708 222.656 59.4375C222.865 59.0938 222.969 58.6615 222.969 58.1406V46.6875C222.969 45.3229 222.531 44.6406 221.656 44.6406C220.781 44.6406 220.344 45.3229 220.344 46.6875V58.1406C220.344 58.6615 220.443 59.0938 220.641 59.4375C220.849 59.7708 221.188 59.9375 221.656 59.9375ZM230.75 64V40.5625H236.219V43.2812C236.469 42.3229 236.896 41.5885 237.5 41.0781C238.104 40.5677 238.99 40.3125 240.156 40.3125C241.094 40.3125 241.891 40.5312 242.547 40.9688C243.214 41.3958 243.682 41.9635 243.953 42.6719C244.38 41.901 244.88 41.3177 245.453 40.9219C246.036 40.5156 246.865 40.3125 247.938 40.3125C249.24 40.3125 250.24 40.5938 250.938 41.1562C251.646 41.7083 252.135 42.4792 252.406 43.4688C252.688 44.4479 252.828 45.5833 252.828 46.875V64H247.25V46.7812C247.25 45.2708 246.865 44.5156 246.094 44.5156C245.688 44.5156 245.375 44.6562 245.156 44.9375C244.938 45.2083 244.786 45.5469 244.703 45.9531C244.62 46.3594 244.578 46.7656 244.578 47.1719V64H239V46.7812C239 46.2917 238.938 45.8021 238.812 45.3125C238.698 44.8229 238.396 44.5781 237.906 44.5781C237.49 44.5781 237.167 44.7292 236.938 45.0312C236.708 45.3333 236.552 45.7083 236.469 46.1562C236.385 46.5938 236.344 47.026 236.344 47.4531V64H230.75ZM255 39.125V34.4688H260.594V39.125H255ZM255 64V40.5625H260.594V64H255ZM269.125 68.0625C268.042 68.0625 267.109 68.0052 266.328 67.8906C265.557 67.7865 264.865 67.5938 264.25 67.3125C263.635 67.0312 263.021 66.6354 262.406 66.125L264.297 62.8906C265.661 63.7031 267.026 64.1094 268.391 64.1094C269.286 64.1094 269.953 63.8229 270.391 63.25C270.828 62.6771 271.047 61.9323 271.047 61.0156V58.7188C270.599 60.3229 269.406 61.125 267.469 61.125C266.354 61.125 265.453 60.8594 264.766 60.3281C264.078 59.7969 263.578 59.0781 263.266 58.1719C262.953 57.2656 262.797 56.2552 262.797 55.1406V46.7188C262.797 45.4583 262.932 44.349 263.203 43.3906C263.474 42.4219 263.948 41.6667 264.625 41.125C265.302 40.5833 266.25 40.3125 267.469 40.3125C268.5 40.3125 269.302 40.5729 269.875 41.0938C270.458 41.6146 270.849 42.3177 271.047 43.2031V40.5625H276.75V60.6562C276.75 63.3125 276.135 65.2083 274.906 66.3438C273.688 67.4896 271.76 68.0625 269.125 68.0625ZM269.734 56.9062C270.609 56.9062 271.047 56.1146 271.047 54.5312V46.5625C271.047 46.1354 270.922 45.6979 270.672 45.25C270.432 44.8021 270.099 44.5781 269.672 44.5781C269.13 44.5781 268.792 44.7812 268.656 45.1875C268.521 45.5833 268.453 46.0417 268.453 46.5625V54.5312C268.453 55.0938 268.521 55.6302 268.656 56.1406C268.802 56.651 269.161 56.9062 269.734 56.9062ZM285.75 64.25C281.083 64.25 278.75 61.8281 278.75 56.9844V47.5781C278.75 45.3698 279.37 43.6094 280.609 42.2969C281.849 40.974 283.562 40.3125 285.75 40.3125C287.948 40.3125 289.667 40.974 290.906 42.2969C292.146 43.6094 292.766 45.3698 292.766 47.5781V56.9844C292.766 61.8281 290.427 64.25 285.75 64.25ZM285.75 59.9375C286.219 59.9375 286.552 59.7708 286.75 59.4375C286.958 59.0938 287.062 58.6615 287.062 58.1406V46.6875C287.062 45.3229 286.625 44.6406 285.75 44.6406C284.875 44.6406 284.438 45.3229 284.438 46.6875V58.1406C284.438 58.6615 284.536 59.0938 284.734 59.4375C284.943 59.7708 285.281 59.9375 285.75 59.9375Z" fill="white"/>
<defs>
<linearGradient id="paint0_linear_14_4" x1="45" y1="63" x2="342.5" y2="65.5" gradientUnits="userSpaceOnUse">
<stop offset="0.405588" stop-color="#EB00FF"/>
<stop offset="1" stop-color="#0091F5"/>
</linearGradient>
</defs>
</svg>
