<svg width="373" height="100" viewBox="0 0 373 100" fill="none" xmlns="http://www.w3.org/2000/svg">
<rect width="373" height="100" rx="50" fill="#EB00FF"/>
<path d="M120.625 64.25C118.635 64.25 117.031 63.6302 115.812 62.3906C114.604 61.151 114 59.4167 114 57.1875V44.5C114 41.8333 114.526 39.7917 115.578 38.375C116.641 36.9583 118.365 36.25 120.75 36.25C122.052 36.25 123.208 36.4896 124.219 36.9688C125.24 37.4479 126.042 38.1667 126.625 39.125C127.208 40.0729 127.5 41.2708 127.5 42.7188V47.4688H122.031V43.4062C122.031 42.5833 121.927 42.0312 121.719 41.75C121.51 41.4583 121.188 41.3125 120.75 41.3125C120.24 41.3125 119.896 41.5 119.719 41.875C119.542 42.2396 119.453 42.7292 119.453 43.3438V57.1094C119.453 57.8698 119.562 58.4062 119.781 58.7188C120.01 59.0312 120.333 59.1875 120.75 59.1875C121.219 59.1875 121.547 58.9948 121.734 58.6094C121.932 58.224 122.031 57.724 122.031 57.1094V52.1562H127.562V57.3594C127.562 59.776 126.953 61.5312 125.734 62.625C124.516 63.7083 122.812 64.25 120.625 64.25ZM136.125 64.25C131.458 64.25 129.125 61.8281 129.125 56.9844V47.5781C129.125 45.3698 129.745 43.6094 130.984 42.2969C132.224 40.974 133.938 40.3125 136.125 40.3125C138.323 40.3125 140.042 40.974 141.281 42.2969C142.521 43.6094 143.141 45.3698 143.141 47.5781V56.9844C143.141 61.8281 140.802 64.25 136.125 64.25ZM136.125 59.9375C136.594 59.9375 136.927 59.7708 137.125 59.4375C137.333 59.0938 137.438 58.6615 137.438 58.1406V46.6875C137.438 45.3229 137 44.6406 136.125 44.6406C135.25 44.6406 134.812 45.3229 134.812 46.6875V58.1406C134.812 58.6615 134.911 59.0938 135.109 59.4375C135.318 59.7708 135.656 59.9375 136.125 59.9375ZM145.219 64V40.5625H150.812V43.5469C151.021 42.651 151.406 41.8906 151.969 41.2656C152.542 40.6302 153.333 40.3125 154.344 40.3125C155.969 40.3125 157.146 40.8125 157.875 41.8125C158.615 42.8125 158.984 44.1823 158.984 45.9219V64H153.469V46.5C153.469 46.0417 153.375 45.6198 153.188 45.2344C153 44.8385 152.677 44.6406 152.219 44.6406C151.792 44.6406 151.474 44.7917 151.266 45.0938C151.068 45.3854 150.943 45.7552 150.891 46.2031C150.839 46.6406 150.812 47.0781 150.812 47.5156V64H145.219ZM166 64.25C164.49 64.25 163.469 63.9323 162.938 63.2969C162.417 62.651 162.156 61.6667 162.156 60.3438V45.7344H160.578V41.4688H162.156V36.5H167.594V41.4688H169.172V45.7344H167.594V59.0312C167.594 59.4167 167.656 59.6875 167.781 59.8438C167.906 60 168.146 60.0781 168.5 60.0781C168.75 60.0781 168.974 60.0573 169.172 60.0156V63.8281C169.047 63.8698 168.656 63.9479 168 64.0625C167.344 64.1875 166.677 64.25 166 64.25ZM175.234 64.25C173.932 64.25 172.938 63.9479 172.25 63.3438C171.573 62.7396 171.109 61.9115 170.859 60.8594C170.609 59.8073 170.484 58.6146 170.484 57.2812C170.484 55.8542 170.625 54.6875 170.906 53.7812C171.188 52.8646 171.667 52.1146 172.344 51.5312C173.031 50.9479 173.974 50.4531 175.172 50.0469L178.641 48.8594V46.4531C178.641 45.1927 178.229 44.5625 177.406 44.5625C176.656 44.5625 176.281 45.0729 176.281 46.0938V47.5H170.844C170.833 47.4167 170.828 47.3125 170.828 47.1875C170.828 47.0521 170.828 46.901 170.828 46.7344C170.828 44.401 171.375 42.75 172.469 41.7812C173.573 40.8021 175.318 40.3125 177.703 40.3125C178.953 40.3125 180.073 40.5365 181.062 40.9844C182.052 41.4219 182.833 42.0729 183.406 42.9375C183.99 43.8021 184.281 44.8698 184.281 46.1406V64H178.719V61.2188C178.448 62.1979 178 62.9479 177.375 63.4688C176.75 63.9896 176.036 64.25 175.234 64.25ZM177.438 59.9062C177.896 59.9062 178.208 59.7135 178.375 59.3281C178.542 58.9427 178.625 58.526 178.625 58.0781V51.5469C177.854 51.8594 177.255 52.2552 176.828 52.7344C176.401 53.2031 176.188 53.8958 176.188 54.8125V57.8281C176.188 59.2135 176.604 59.9062 177.438 59.9062ZM191.25 64.25C189.74 64.25 188.719 63.9323 188.188 63.2969C187.667 62.651 187.406 61.6667 187.406 60.3438V45.7344H185.828V41.4688H187.406V36.5H192.844V41.4688H194.422V45.7344H192.844V59.0312C192.844 59.4167 192.906 59.6875 193.031 59.8438C193.156 60 193.396 60.0781 193.75 60.0781C194 60.0781 194.224 60.0573 194.422 60.0156V63.8281C194.297 63.8698 193.906 63.9479 193.25 64.0625C192.594 64.1875 191.927 64.25 191.25 64.25ZM202.781 64.25C201.115 64.25 199.786 63.9375 198.797 63.3125C197.807 62.6875 197.099 61.7865 196.672 60.6094C196.245 59.4323 196.031 58.0156 196.031 56.3594V46.9375C196.031 44.7604 196.656 43.1146 197.906 42C199.156 40.875 200.875 40.3125 203.062 40.3125C207.562 40.3125 209.812 42.5208 209.812 46.9375V48.6406C209.812 50.7031 209.792 52.0885 209.75 52.7969H201.625V57.3281C201.625 57.7448 201.651 58.1562 201.703 58.5625C201.755 58.9583 201.87 59.2865 202.047 59.5469C202.234 59.8073 202.531 59.9375 202.938 59.9375C203.521 59.9375 203.885 59.6875 204.031 59.1875C204.177 58.6771 204.25 58.0156 204.25 57.2031V54.9531H209.812V56.2812C209.812 58.0312 209.594 59.5 209.156 60.6875C208.729 61.8646 208 62.7552 206.969 63.3594C205.948 63.9531 204.552 64.25 202.781 64.25ZM201.594 50.0156H204.25V46.8594C204.25 46.0156 204.146 45.4115 203.938 45.0469C203.729 44.6719 203.417 44.4844 203 44.4844C202.552 44.4844 202.203 44.6615 201.953 45.0156C201.714 45.3698 201.594 45.9844 201.594 46.8594V50.0156ZM211.656 56.0469V52.4219H219.719V56.0469H211.656ZM221.812 64V40.5625H227.281V43.2812C227.531 42.3229 227.958 41.5885 228.562 41.0781C229.167 40.5677 230.052 40.3125 231.219 40.3125C232.156 40.3125 232.953 40.5312 233.609 40.9688C234.276 41.3958 234.745 41.9635 235.016 42.6719C235.443 41.901 235.943 41.3177 236.516 40.9219C237.099 40.5156 237.927 40.3125 239 40.3125C240.302 40.3125 241.302 40.5938 242 41.1562C242.708 41.7083 243.198 42.4792 243.469 43.4688C243.75 44.4479 243.891 45.5833 243.891 46.875V64H238.312V46.7812C238.312 45.2708 237.927 44.5156 237.156 44.5156C236.75 44.5156 236.438 44.6562 236.219 44.9375C236 45.2083 235.849 45.5469 235.766 45.9531C235.682 46.3594 235.641 46.7656 235.641 47.1719V64H230.062V46.7812C230.062 46.2917 230 45.8021 229.875 45.3125C229.76 44.8229 229.458 44.5781 228.969 44.5781C228.552 44.5781 228.229 44.7292 228 45.0312C227.771 45.3333 227.615 45.7083 227.531 46.1562C227.448 46.5938 227.406 47.026 227.406 47.4531V64H221.812ZM252.656 64.25C250.99 64.25 249.661 63.9375 248.672 63.3125C247.682 62.6875 246.974 61.7865 246.547 60.6094C246.12 59.4323 245.906 58.0156 245.906 56.3594V46.9375C245.906 44.7604 246.531 43.1146 247.781 42C249.031 40.875 250.75 40.3125 252.938 40.3125C257.438 40.3125 259.688 42.5208 259.688 46.9375V48.6406C259.688 50.7031 259.667 52.0885 259.625 52.7969H251.5V57.3281C251.5 57.7448 251.526 58.1562 251.578 58.5625C251.63 58.9583 251.745 59.2865 251.922 59.5469C252.109 59.8073 252.406 59.9375 252.812 59.9375C253.396 59.9375 253.76 59.6875 253.906 59.1875C254.052 58.6771 254.125 58.0156 254.125 57.2031V54.9531H259.688V56.2812C259.688 58.0312 259.469 59.5 259.031 60.6875C258.604 61.8646 257.875 62.7552 256.844 63.3594C255.823 63.9531 254.427 64.25 252.656 64.25ZM251.469 50.0156H254.125V46.8594C254.125 46.0156 254.021 45.4115 253.812 45.0469C253.604 44.6719 253.292 44.4844 252.875 44.4844C252.427 44.4844 252.078 44.6615 251.828 45.0156C251.589 45.3698 251.469 45.9844 251.469 46.8594V50.0156Z" fill="white"/>
</svg>
