<svg width="373" height="100" viewBox="0 0 373 100" fill="none" xmlns="http://www.w3.org/2000/svg">
<rect width="373" height="100" rx="50" fill="#0091F5"/>
<path d="M144.219 64V36.5H151.781C153.76 36.5 155.25 37.0521 156.25 38.1562C157.25 39.25 157.75 40.8542 157.75 42.9688V55.8438C157.75 58.4479 157.292 60.4583 156.375 61.875C155.469 63.2917 153.875 64 151.594 64H144.219ZM149.75 59.1406H150.703C151.714 59.1406 152.219 58.651 152.219 57.6719V43.4844C152.219 42.5677 152.094 41.9792 151.844 41.7188C151.604 41.4479 151.109 41.3125 150.359 41.3125H149.75V59.1406ZM166.469 64.25C164.802 64.25 163.474 63.9375 162.484 63.3125C161.495 62.6875 160.786 61.7865 160.359 60.6094C159.932 59.4323 159.719 58.0156 159.719 56.3594V46.9375C159.719 44.7604 160.344 43.1146 161.594 42C162.844 40.875 164.562 40.3125 166.75 40.3125C171.25 40.3125 173.5 42.5208 173.5 46.9375V48.6406C173.5 50.7031 173.479 52.0885 173.438 52.7969H165.312V57.3281C165.312 57.7448 165.339 58.1562 165.391 58.5625C165.443 58.9583 165.557 59.2865 165.734 59.5469C165.922 59.8073 166.219 59.9375 166.625 59.9375C167.208 59.9375 167.573 59.6875 167.719 59.1875C167.865 58.6771 167.938 58.0156 167.938 57.2031V54.9531H173.5V56.2812C173.5 58.0312 173.281 59.5 172.844 60.6875C172.417 61.8646 171.688 62.7552 170.656 63.3594C169.635 63.9531 168.24 64.25 166.469 64.25ZM165.281 50.0156H167.938V46.8594C167.938 46.0156 167.833 45.4115 167.625 45.0469C167.417 44.6719 167.104 44.4844 166.688 44.4844C166.24 44.4844 165.891 44.6615 165.641 45.0156C165.401 45.3698 165.281 45.9844 165.281 46.8594V50.0156ZM175.531 67.9062V40.5625H181.219V43.0625C181.562 42.1979 182.036 41.526 182.641 41.0469C183.255 40.5573 184.13 40.3125 185.266 40.3125C186.797 40.3125 187.875 40.8698 188.5 41.9844C189.135 43.099 189.453 44.5573 189.453 46.3594V57.8906C189.453 59.0885 189.281 60.1719 188.938 61.1406C188.604 62.099 188.073 62.8594 187.344 63.4219C186.625 63.974 185.682 64.25 184.516 64.25C182.995 64.25 181.896 63.3333 181.219 61.5V67.9062H175.531ZM182.547 59.8906C183.13 59.8906 183.479 59.599 183.594 59.0156C183.719 58.4323 183.781 57.7135 183.781 56.8594V47.7031C183.781 46.8385 183.719 46.1198 183.594 45.5469C183.479 44.9635 183.13 44.6719 182.547 44.6719C181.943 44.6719 181.568 44.9688 181.422 45.5625C181.286 46.1458 181.219 46.8594 181.219 47.7031V56.8594C181.219 57.7031 181.286 58.4219 181.422 59.0156C181.568 59.599 181.943 59.8906 182.547 59.8906ZM191.594 64V36.5H197.281V64H191.594ZM206.344 64.25C201.677 64.25 199.344 61.8281 199.344 56.9844V47.5781C199.344 45.3698 199.964 43.6094 201.203 42.2969C202.443 40.974 204.156 40.3125 206.344 40.3125C208.542 40.3125 210.26 40.974 211.5 42.2969C212.74 43.6094 213.359 45.3698 213.359 47.5781V56.9844C213.359 61.8281 211.021 64.25 206.344 64.25ZM206.344 59.9375C206.812 59.9375 207.146 59.7708 207.344 59.4375C207.552 59.0938 207.656 58.6615 207.656 58.1406V46.6875C207.656 45.3229 207.219 44.6406 206.344 44.6406C205.469 44.6406 205.031 45.3229 205.031 46.6875V58.1406C205.031 58.6615 205.13 59.0938 205.328 59.4375C205.536 59.7708 205.875 59.9375 206.344 59.9375ZM214.984 67.9062V64.3594H217.672C218.078 64.3594 218.281 64.2188 218.281 63.9375C218.281 63.7917 218.266 63.6406 218.234 63.4844L214.562 40.5625H219.922L221.484 57.8125L223.328 40.5625H228.719L224.375 65.2188C224.219 66.1042 223.917 66.7708 223.469 67.2188C223.031 67.6771 222.307 67.9062 221.297 67.9062H214.984Z" fill="white"/>
</svg>
