<svg width="373" height="100" viewBox="0 0 373 100" fill="none" xmlns="http://www.w3.org/2000/svg">
<rect width="373" height="100" rx="50" fill="#EB00FF"/>
<path d="M152.891 64.25C148.964 64.25 147 61.4375 147 55.8125V43.9531C147 38.8177 149.25 36.25 153.75 36.25C155.604 36.25 157.026 36.625 158.016 37.375C159.005 38.1146 159.688 39.1979 160.062 40.625C160.438 42.0521 160.625 43.7917 160.625 45.8438H155.25V43.4062C155.25 42.8125 155.167 42.3177 155 41.9219C154.844 41.5156 154.51 41.3125 154 41.3125C153.365 41.3125 152.943 41.526 152.734 41.9531C152.536 42.3802 152.438 42.849 152.438 43.3594V56.6875C152.438 57.4271 152.531 58.0312 152.719 58.5C152.917 58.9583 153.297 59.1875 153.859 59.1875C154.443 59.1875 154.828 58.9583 155.016 58.5C155.214 58.0312 155.312 57.4167 155.312 56.6562V52.7344H153.844V47.9844H160.562V64H158.359L157.422 61.6875C156.464 63.3958 154.953 64.25 152.891 64.25ZM162.625 39.125V34.4688H168.219V39.125H162.625ZM162.625 64V40.5625H168.219V64H162.625ZM175.25 64.25C173.74 64.25 172.719 63.9323 172.188 63.2969C171.667 62.651 171.406 61.6667 171.406 60.3438V45.7344H169.828V41.4688H171.406V36.5H176.844V41.4688H178.422V45.7344H176.844V59.0312C176.844 59.4167 176.906 59.6875 177.031 59.8438C177.156 60 177.396 60.0781 177.75 60.0781C178 60.0781 178.224 60.0573 178.422 60.0156V63.8281C178.297 63.8698 177.906 63.9479 177.25 64.0625C176.594 64.1875 175.927 64.25 175.25 64.25ZM180.312 64V36.5H185.781V46.3281H188.375V36.5H193.844V64H188.375V51.5312H185.781V64H180.312ZM200.703 64.25C199.453 64.25 198.495 63.9896 197.828 63.4688C197.172 62.9479 196.724 62.224 196.484 61.2969C196.245 60.3594 196.125 59.2656 196.125 58.0156V40.5625H201.75V57.3594C201.75 58.2969 201.823 58.9531 201.969 59.3281C202.115 59.6927 202.458 59.875 203 59.875C203.583 59.875 203.948 59.6146 204.094 59.0938C204.25 58.5729 204.328 57.901 204.328 57.0781V40.5625H209.906V64H204.312V61.5C203.958 62.3958 203.531 63.0781 203.031 63.5469C202.542 64.0156 201.766 64.25 200.703 64.25ZM221.516 64.25C220.599 64.25 219.854 64.026 219.281 63.5781C218.708 63.1198 218.25 62.4271 217.906 61.5V64H212.219V36.5H217.906V43.0625C218.25 42.1979 218.724 41.526 219.328 41.0469C219.943 40.5573 220.818 40.3125 221.953 40.3125C223.484 40.3125 224.562 40.8698 225.188 41.9844C225.823 43.099 226.141 44.5573 226.141 46.3594V57.8906C226.141 59.0885 225.974 60.1719 225.641 61.1406C225.318 62.099 224.812 62.8594 224.125 63.4219C223.448 63.974 222.578 64.25 221.516 64.25ZM219.203 59.8906C219.797 59.8906 220.156 59.599 220.281 59.0156C220.406 58.4323 220.469 57.7135 220.469 56.8594V47.7031C220.469 46.8385 220.406 46.1198 220.281 45.5469C220.156 44.9635 219.802 44.6719 219.219 44.6719C218.615 44.6719 218.245 44.9688 218.109 45.5625C217.974 46.1458 217.906 46.8594 217.906 47.7031V56.8594C217.906 57.7031 217.974 58.4219 218.109 59.0156C218.245 59.599 218.609 59.8906 219.203 59.8906Z" fill="white"/>
</svg>
